<svg width="6" height="9" viewBox="0 0 6 9" fill="none" xmlns="http://www.w3.org/2000/svg">
<path d="M0.161239 7.49181C0.109733 7.53084 0.069468 7.57676 0.0427411 7.62693C0.0160143 7.67711 0.0033491 7.73057 0.0054696 7.78425C0.0075901 7.83793 0.0244547 7.89079 0.0550998 7.93981C0.0857448 7.98882 0.12957 8.03304 0.184074 8.06992C0.238578 8.10681 0.302694 8.13564 0.37276 8.15478C0.442825 8.17393 0.517468 8.183 0.592428 8.18148C0.667388 8.17996 0.741197 8.16788 0.809639 8.14593C0.878082 8.12399 0.939818 8.0926 0.991323 8.05357L5.84395 4.37391C5.94416 4.298 6 4.1975 6 4.09303C6 3.98856 5.94416 3.88806 5.84395 3.81215L0.991324 0.132083C0.940159 0.0921946 0.878436 0.0599849 0.809742 0.0373245C0.741047 0.0146641 0.666751 0.00200478 0.591168 8.16078e-05C0.515584 -0.00184156 0.44022 0.00700976 0.369453 0.0261217C0.298686 0.0452336 0.233928 0.0742247 0.178939 0.111412C0.12395 0.148599 0.079826 0.19324 0.049131 0.242742C0.018436 0.292244 0.00178172 0.345621 0.000134978 0.399772C-0.00151176 0.453923 0.0118819 0.507769 0.0395384 0.558181C0.067195 0.608594 0.108563 0.654568 0.161239 0.693434L4.64392 4.09303L0.161239 7.49181Z" fill="black"/>
</svg>
